<svg width="512" height="512" viewBox="0 0 512 512" fill="none" xmlns="http://www.w3.org/2000/svg">
<circle opacity="0.2" cx="256" cy="256" r="245" stroke="#94A3B8" stroke-width="10"/>
<path opacity="0.2" d="M165.259 147.707C170.976 147.707 175.989 148.529 180.296 150.174C184.682 151.741 186.875 153.894 186.875 156.636C186.875 159.377 185.818 162.784 183.703 166.856C181.667 170.851 179.944 172.848 178.534 172.848C178.143 172.848 177.673 172.652 177.124 172.26C176.655 171.79 175.48 171.32 173.6 170.851C171.799 170.302 170.232 170.028 168.901 170.028C164.358 170.028 160.677 171.634 157.858 174.845C155.117 178.056 153.746 182.99 153.746 189.647C153.746 196.226 155.156 201.121 157.975 204.332C160.873 207.543 164.515 209.149 168.901 209.149C170.702 209.149 172.699 208.914 174.892 208.444C177.164 207.896 178.769 207.152 179.709 206.212C179.866 206.055 180.179 205.977 180.649 205.977C181.119 205.977 181.98 206.878 183.233 208.679C184.565 210.402 185.779 212.712 186.875 215.61C187.972 218.43 188.52 220.623 188.52 222.189C188.52 225.244 186.17 227.671 181.471 229.473C176.772 231.274 171.211 232.175 164.789 232.175C154.451 232.175 145.953 228.533 139.296 221.249C132.639 213.965 129.31 203.706 129.31 190.47C129.31 177.155 132.717 166.7 139.531 159.103C146.423 151.506 154.999 147.707 165.259 147.707ZM196.338 224.069V150.996C196.338 149.352 200.293 148.529 208.203 148.529C216.192 148.529 220.186 149.352 220.186 150.996V208.561H238.278C239.688 208.561 240.667 210.402 241.215 214.083C241.45 215.884 241.567 217.725 241.567 219.604C241.567 221.484 241.45 223.403 241.215 225.361C240.588 229.12 239.57 231 238.161 231H201.977C200.254 231 198.883 230.295 197.865 228.885C196.847 227.476 196.338 225.87 196.338 224.069ZM286.982 151.114C286.982 149.548 291.211 148.764 299.669 148.764C308.206 148.764 312.475 149.548 312.475 151.114V205.037C312.475 213.026 309.616 219.565 303.899 224.656C298.181 229.669 290.271 232.175 280.168 232.175C270.143 232.175 261.958 229.59 255.615 224.421C249.349 219.174 246.216 212.125 246.216 203.275V151.231C246.216 149.665 250.445 148.882 258.904 148.882C267.441 148.882 271.709 149.665 271.709 151.231V204.215C271.709 205.781 272.532 207.034 274.176 207.974C275.899 208.914 277.701 209.384 279.58 209.384C281.46 209.384 283.144 208.953 284.632 208.092C286.198 207.23 286.982 205.938 286.982 204.215V151.114ZM380.017 170.028C380.017 178.173 376.493 184.361 369.444 188.59C373.282 190 376.493 192.428 379.077 195.874C381.662 199.32 382.954 204.215 382.954 210.559C382.954 216.824 380.604 221.797 375.905 225.478C371.284 229.159 364.627 231 355.934 231H328.209C326.877 231 325.781 230.569 324.919 229.708C324.058 228.768 323.627 227.554 323.627 226.066V150.879C323.627 150.017 323.744 149.469 323.979 149.234C324.293 148.921 324.88 148.764 325.741 148.764H352.527C370.854 148.764 380.017 155.852 380.017 170.028ZM346.183 167.796V183.186H346.77C354.289 183.186 358.048 180.68 358.048 175.667C358.048 172.926 357.304 170.929 355.816 169.676C354.406 168.423 352.018 167.796 348.65 167.796H346.183ZM346.183 197.048V212.321H348.298C351.665 212.321 354.132 211.694 355.699 210.441C357.265 209.188 358.048 207.191 358.048 204.45C358.048 201.708 357.304 199.79 355.816 198.693C354.406 197.597 352.018 197.048 348.65 197.048H346.183ZM116.89 358.069V284.996C116.89 283.352 120.845 282.529 128.756 282.529C136.744 282.529 140.738 283.352 140.738 284.996V342.561H158.83C160.24 342.561 161.219 344.402 161.767 348.083C162.002 349.884 162.12 351.725 162.12 353.604C162.12 355.484 162.002 357.403 161.767 359.361C161.141 363.12 160.123 365 158.713 365H122.529C120.806 365 119.435 364.295 118.417 362.885C117.399 361.476 116.89 359.87 116.89 358.069ZM204.009 366.175C193.045 366.175 184.077 362.572 177.107 355.367C170.214 348.161 166.768 337.666 166.768 323.882C166.768 310.02 170.254 299.525 177.224 292.398C184.273 285.271 193.319 281.707 204.362 281.707C215.483 281.707 224.451 285.231 231.265 292.28C238.078 299.251 241.485 309.863 241.485 324.117C241.485 338.293 238 348.866 231.03 355.837C224.059 362.729 215.052 366.175 204.009 366.175ZM204.127 304.263C200.368 304.263 197.196 305.986 194.611 309.432C192.105 312.878 190.852 317.734 190.852 324C190.852 330.187 192.066 334.964 194.494 338.332C196.921 341.622 200.093 343.266 204.009 343.266C208.004 343.266 211.215 341.582 213.643 338.215C216.149 334.847 217.402 330.03 217.402 323.765C217.402 317.499 216.11 312.682 213.525 309.315C211.019 305.947 207.886 304.263 204.127 304.263ZM294.385 340.447L294.62 324.47C294.62 323.373 295.756 322.668 298.027 322.355C300.298 321.963 302.178 321.768 303.666 321.768L308.248 322.12C311.224 322.59 312.712 323.412 312.712 324.587L312.242 361.358C310.676 362.455 307.504 363.551 302.726 364.648C298.027 365.666 292.623 366.175 286.514 366.175C275.158 366.175 265.994 362.494 259.024 355.132C252.053 347.77 248.568 336.962 248.568 322.707C248.568 310.568 251.975 300.7 258.789 293.103C265.603 285.506 275.04 281.707 287.101 281.707C292.584 281.707 297.518 282.255 301.904 283.352C306.368 284.37 309.422 285.78 311.067 287.581C311.145 288.208 311.185 289.382 311.185 291.105C311.185 292.828 310.597 295.296 309.422 298.507C308.248 301.639 306.916 303.989 305.428 305.555C303.94 307.122 302.844 307.905 302.139 307.905C301.512 307.905 300.807 307.631 300.024 307.083C299.319 306.456 297.87 305.83 295.677 305.203C293.484 304.498 291.37 304.146 289.333 304.146C284.478 304.146 280.522 305.712 277.468 308.845C274.492 311.978 273.004 316.833 273.004 323.412C273.004 329.991 274.531 335.004 277.585 338.45C280.718 341.817 284.282 343.501 288.276 343.501C292.349 343.501 294.385 342.483 294.385 340.447ZM358.775 366.175C347.81 366.175 338.842 362.572 331.872 355.367C324.98 348.161 321.534 337.666 321.534 323.882C321.534 310.02 325.019 299.525 331.989 292.398C339.038 285.271 348.084 281.707 359.127 281.707C370.249 281.707 379.216 285.231 386.03 292.28C392.844 299.251 396.251 309.863 396.251 324.117C396.251 338.293 392.766 348.866 385.795 355.837C378.825 362.729 369.818 366.175 358.775 366.175ZM358.892 304.263C355.133 304.263 351.961 305.986 349.376 309.432C346.87 312.878 345.617 317.734 345.617 324C345.617 330.187 346.831 334.964 349.259 338.332C351.687 341.622 354.859 343.266 358.775 343.266C362.769 343.266 365.98 341.582 368.408 338.215C370.914 334.847 372.167 330.03 372.167 323.765C372.167 317.499 370.875 312.682 368.291 309.315C365.784 305.947 362.652 304.263 358.892 304.263Z" fill="#94A3B8"/>
</svg>
